<?xml version="1.0" standalone="no"?><!DOCTYPE svg PUBLIC "-//W3C//DTD SVG 1.1//EN" "http://www.w3.org/Graphics/SVG/1.1/DTD/svg11.dtd"><svg t="1580896285919" class="icon" viewBox="0 0 1034 1024" version="1.1" xmlns="http://www.w3.org/2000/svg" p-id="3837" xmlns:xlink="http://www.w3.org/1999/xlink" width="201.953125" height="200"><defs><style type="text/css"></style></defs><path d="M5.171717 5.171717m506.828283 0l10.343434 0q506.828283 0 506.828283 506.828283l0 0q0 506.828283-506.828283 506.828283l-10.343434 0q-506.828283 0-506.828283-506.828283l0 0q0-506.828283 506.828283-506.828283Z" fill="#FFFFFF" p-id="3838"></path><path d="M258.585859 605.090909C258.585859 677.815596 347.79798 734.383838 460.282828 734.383838S661.979798 677.815596 661.979798 605.090909 572.767677 475.79798 460.282828 475.79798 258.585859 532.366222 258.585859 605.090909" fill="#FFFFFF" p-id="3839"></path><path d="M660.500687 497.612283c-7.778263-3.961535-15.556525-3.961535-11.667394-15.846142 7.778263-23.769212 11.667394-43.566545 0-59.412686-19.445657-27.720404-73.883152-27.720404-132.209778 0 0 0-19.445657 7.923071-15.546182-7.923071 15.546182-31.692283 11.657051-59.412687 0-71.297293-31.113051-31.692283-120.552727 0-194.425535 79.220364C252.20396 477.804606 217.212121 541.168485 217.212121 592.668444 217.212121 691.696485 341.643636 755.070707 466.075152 755.070707 629.39798 755.070707 734.383838 660.014545 734.383838 584.745374c0-51.489616-38.891313-79.21002-73.883151-87.133091zM466.075152 715.455354c-97.207596 11.874263-182.758141-35.653818-190.526061-102.989576-7.788606-63.374222 66.094545-126.748444 167.201616-134.671515 97.207596-11.884606 182.758141 35.643475 190.526061 102.989575 3.899475 63.374222-69.983677 122.776566-167.201616 134.671516z" fill="#D52B2A" p-id="3840"></path><path d="M777.660768 319.012202c-38.043152-42.490828-95.118222-57.943919-148.376566-46.359273-11.408808 3.868444-19.021576 15.453091-19.021576 27.048081 7.612768 11.584646 19.031919 19.311192 30.440728 15.453091 38.043152-7.726545 76.086303 3.858101 102.710303 34.764283 26.634343 30.906182 34.236768 73.407354 22.827959 108.171636-3.79604 11.584646 3.806384 23.179636 15.225536 27.048081 11.408808 3.858101 22.82796-3.868444 26.624-15.453091 19.031919-46.359273 7.612768-104.313535-30.430384-150.672808" fill="#E89214" p-id="3841"></path><path d="M715.124364 366.26101c-20.552404-19.942141-49.317495-27.927273-78.082586-23.934707-12.329374 3.992566-16.435717 11.977697-16.435717 23.945051 4.106343 11.967354 12.329374 15.959919 24.658747 15.959919 12.329374-3.992566 28.754747 0 36.977778 11.967353 8.22303 11.967354 12.329374 23.945051 8.22303 35.912404-4.106343 11.967354 4.106343 19.952485 12.329374 23.934707 12.329374 3.992566 20.542061-3.982222 24.658747-11.967353 12.31903-23.934707 8.212687-51.872323-12.329373-75.817374" fill="#E89214" p-id="3842"></path><path d="M484.589899 530.473374c-48.438303-11.543273-100.920889 11.553616-125.145212 53.889293-20.18004 42.325333 0 88.508768 48.448646 103.899798 52.482586 15.39103 113.043394-7.695515 133.223435-53.87895 20.190384-46.183434-4.033939-88.508768-56.516526-103.910141z m-36.326141 107.757899c-8.067879 15.39103-32.292202 23.086545-48.448647 15.39103-16.135758-7.695515-20.18004-23.086545-12.101818-38.477576 8.067879-15.401374 28.258263-19.238788 44.404364-15.401373 20.18004 7.705859 24.224323 23.096889 16.146101 38.487919z m32.302545-38.477576c-4.033939 7.695515-12.112162 7.695515-16.156444 7.695515-8.067879-3.847758-8.067879-7.705859-4.03394-15.401374 4.033939-3.847758 12.101818-7.695515 16.146101-7.695515 4.033939 3.847758 8.067879 7.695515 4.03394 15.391031z" fill="#040000" p-id="3843"></path></svg>