<?xml version="1.0" standalone="no"?><!DOCTYPE svg PUBLIC "-//W3C//DTD SVG 1.1//EN" "http://www.w3.org/Graphics/SVG/1.1/DTD/svg11.dtd"><svg t="1580896767976" class="icon" viewBox="0 0 1024 1024" version="1.1" xmlns="http://www.w3.org/2000/svg" p-id="4050" xmlns:xlink="http://www.w3.org/1999/xlink" width="200" height="200"><defs><style type="text/css"></style></defs><path d="M145.6 631.52c-8 34.08 14.08 118.08 146.08 118.08 82.08 0 160-49.92 224-132-90.08-44-166.08-65.92-250.08-65.92-74.08-0.16-112 45.92-120 79.84z m0 0" fill="#08A1F8" p-id="4051"></path><path d="M305.6 809.6c-126.08 0-208-77.92-198.08-172 5.92-62.08 49.92-164 234.08-146.08 98.08 10.08 141.92 28 220 54.08 20-37.92 37.92-77.92 50.08-122.08h-352v-33.92H433.6v-62.08H223.52v-40h212v-90.08s1.92-14.08 17.92-14.08h85.92v104h226.08v37.92H539.52v61.92h184c-16 69.92-42.08 132-74.08 188 40 13.92 186.08 60 256 82.08V237.6c0-64-52-116-116-116h-568c-64 0-116 52-116 116v568c0 64 52 116 116 116h568c64 0 116-52 116-116v-9.92c-76-34.08-225.92-98.08-312-140-79.84 95.84-161.92 153.92-287.84 153.92z m0 0" fill="#08A1F8" p-id="4052"></path></svg>